HIERARCHY
ROOT root
{
	OFFSET 0.000000 0.000000 0.000000
	CHANNELS 6 Xposition Yposition Zposition Zrotation Yrotation Xrotation
	JOINT lhip
	{
		OFFSET 0.058581 -0.082280 -0.017664
		CHANNELS 3 Zrotation Yrotation Xrotation
		JOINT lknee
		{
			OFFSET 0.043451 -0.386469 0.008037
			CHANNELS 3 Zrotation Yrotation Xrotation
			JOINT lankle
			{
				OFFSET -0.014790 -0.426874 -0.037428
				CHANNELS 3 Zrotation Yrotation Xrotation
				JOINT ltoe
				{
					OFFSET 0.041054 -0.060286 0.122042
					CHANNELS 3 Zrotation Yrotation Xrotation
					End Site
					{
						OFFSET 0.000000 0.000000 0.000000
					}
				}
			}
		}
	}
	JOINT rhip
	{
		OFFSET -0.060310 -0.090513 -0.013543
		CHANNELS 3 Zrotation Yrotation Xrotation
		JOINT rknee
		{
			OFFSET -0.043257 -0.383688 -0.004843
			CHANNELS 3 Zrotation Yrotation Xrotation
			JOINT rankle
			{
				OFFSET 0.019056 -0.420046 -0.034562
				CHANNELS 3 Zrotation Yrotation Xrotation
				JOINT rtoe
				{
					OFFSET -0.034840 -0.062106 0.130323
					CHANNELS 3 Zrotation Yrotation Xrotation
					End Site
					{
						OFFSET 0.000000 0.000000 0.000000
					}
				}
			}
		}
	}
	JOINT lowerback
	{
		OFFSET 0.004439 0.124404 -0.038385
		CHANNELS 3 Zrotation Yrotation Xrotation
		JOINT upperback
		{
			OFFSET 0.004488 0.137956 0.026820
			CHANNELS 3 Zrotation Yrotation Xrotation
			JOINT chest
			{
				OFFSET -0.002265 0.056032 0.002855
				CHANNELS 3 Zrotation Yrotation Xrotation
				JOINT lowerneck
				{
					OFFSET -0.013390 0.211636 -0.033468
					CHANNELS 3 Zrotation Yrotation Xrotation
					JOINT upperneck
					{
						OFFSET 0.010113 0.088937 0.050410
						CHANNELS 3 Zrotation Yrotation Xrotation
						End Site
						{
							OFFSET 0.000000 0.000000 0.000000
						}
					}
				}
				JOINT lclavicle
				{
					OFFSET 0.071702 0.114000 -0.018898
					CHANNELS 3 Zrotation Yrotation Xrotation
					JOINT lshoulder
					{
						OFFSET 0.122921 0.045205 -0.019046
						CHANNELS 3 Zrotation Yrotation Xrotation
						JOINT lelbow
						{
							OFFSET 0.255332 -0.015649 -0.022946
							CHANNELS 3 Zrotation Yrotation Xrotation
							JOINT lwrist
							{
								OFFSET 0.265709 0.012698 -0.007375
								CHANNELS 3 Zrotation Yrotation Xrotation
								End Site
								{
									OFFSET 0.000000 0.000000 0.000000
								}
							}
						}
					}
				}
				JOINT rclavicle
				{
					OFFSET -0.082954 0.112472 -0.023707
					CHANNELS 3 Zrotation Yrotation Xrotation
					JOINT rshoulder
					{
						OFFSET -0.113228 0.046853 -0.008472
						CHANNELS 3 Zrotation Yrotation Xrotation
						JOINT relbow
						{
							OFFSET -0.260127 -0.014369 -0.031269
							CHANNELS 3 Zrotation Yrotation Xrotation
							JOINT rwrist
							{
								OFFSET -0.269108 0.006794 -0.006027
								CHANNELS 3 Zrotation Yrotation Xrotation
								End Site
								{
									OFFSET 0.000000 0.000000 0.000000
								}
							}
						}
					}
				}
			}
		}
	}
}
MOTION
Frames: 17
Frame Time: 0.033333
-0.165910 1.613019 1.043104 109.907414 44.340132 99.793180 36.146062 15.951466 -27.719859 -7.179457 -13.886542 29.353822 0.632763 7.033374 -17.144772 0.000000 -0.000000 0.000000 -25.146589 -16.434269 -25.125246 -4.890252 -0.314043 41.116559 3.155350 -9.202392 -16.976425 0.000000 -0.000000 0.000000 -5.735448 8.607796 43.498347 6.164705 -4.203438 18.130895 3.670893 0.699569 -8.183649 17.322186 16.689453 23.924296 18.154824 -14.867944 -24.906845 -12.484134 8.068454 -0.416662 3.168701 -23.798907 -18.769417 87.902799 -66.293618 -86.272707 12.949529 -16.484191 -6.777479 31.179654 -1.509182 15.864247 55.804384 -7.561859 0.678334 -27.912979 17.427345 -1.438202 -2.414521 3.876608 -12.683676 
-0.162733 1.614021 1.038721 108.872631 42.104915 99.944360 34.568098 15.899521 -28.928987 -8.563617 -12.054342 31.162813 1.518201 7.546480 -18.134122 0.000000 -0.000000 0.000000 -19.353930 -15.354866 -27.137198 -3.577113 -2.107869 48.110850 2.469512 -10.114521 -16.145560 0.000000 -0.000000 0.000000 -7.164930 7.651917 40.597918 4.231114 -4.313392 17.045277 2.406292 -0.079979 -6.455199 15.519583 15.510799 21.802283 18.136995 -12.362692 -22.311090 -16.635900 8.131902 0.643615 -4.604544 -20.743361 -13.486963 75.210617 -68.617583 -74.332115 8.190937 -16.003699 -4.641975 30.774788 -3.290727 14.410610 58.818438 -7.325625 -1.533929 -27.839134 14.516349 -3.144997 -0.817978 3.163414 -13.200263 
-0.158219 1.619488 1.032047 107.995401 39.008450 99.482113 31.895698 14.605598 -29.450831 -9.803003 -10.674294 33.155236 2.111497 8.811760 -19.430807 0.000000 -0.000000 0.000000 -15.237457 -12.945988 -27.240130 -1.778488 -5.154803 53.045923 2.377335 -10.482110 -15.494738 0.000000 -0.000000 0.000000 -8.846548 6.452213 38.421839 2.555208 -4.431610 15.521821 1.151269 -0.423073 -5.009912 13.675731 13.314792 20.650470 18.440229 -9.296178 -20.369300 -19.883070 9.462743 1.392151 -12.422298 -18.937607 -7.970149 67.831716 -70.579676 -65.840533 6.815871 -14.986686 -4.403746 29.600235 -5.355351 13.109969 59.662133 -6.907724 -3.041955 -28.370125 12.003814 -5.971823 -1.939440 2.256415 -15.443295 
-0.152859 1.628196 1.025245 107.716938 35.309563 98.615222 28.541478 12.640396 -29.278467 -10.757525 -8.743403 34.739956 2.608884 10.195673 -20.505797 0.000000 -0.000000 0.000000 -11.887000 -11.285758 -25.508170 -2.050748 -9.030533 55.716021 2.002103 -12.526607 -14.930505 0.000000 -0.000000 0.000000 -10.298500 5.130176 36.655691 1.240399 -4.591302 14.529017 0.084307 -0.401096 -3.995976 11.434078 10.311117 19.844282 18.401719 -6.464707 -18.870212 -22.756257 10.763217 1.995978 -19.266112 -17.130532 -2.856791 63.530601 -73.058708 -60.404231 5.275070 -14.536407 -4.481889 27.870154 -7.440053 11.786280 58.639884 -6.299974 -4.804379 -29.214898 10.976524 -9.559559 -2.495261 1.705189 -16.509085 
-0.148150 1.638145 1.019901 107.001863 31.882663 97.661829 25.187768 10.825350 -28.574487 -11.181477 -6.729892 35.527115 3.028776 11.627619 -21.391417 0.000000 -0.000000 0.000000 -7.822801 -9.659134 -23.655807 -1.888993 -11.492068 56.403335 1.797354 -13.680047 -14.550310 0.000000 -0.000000 0.000000 -11.051908 4.313292 33.787751 0.160516 -4.639842 14.871136 -0.780144 -0.427033 -3.620344 9.422372 7.392257 19.121438 18.301789 -4.692000 -17.569964 -24.784775 11.599421 2.586736 -26.075742 -14.886059 1.381767 62.550437 -75.499902 -58.159905 3.294635 -14.244776 -4.023278 26.102526 -8.507873 11.038577 56.205151 -5.653644 -6.341160 -30.089365 11.487140 -13.089642 -2.899439 1.846968 -16.842415 
-0.142746 1.648776 1.016463 105.301938 28.806537 96.072947 22.004337 9.157931 -26.558078 -11.160699 -5.405432 35.467320 3.526391 13.093697 -22.375505 0.000000 -0.000000 0.000000 -3.512274 -8.013656 -20.951447 -0.546519 -13.398048 54.744196 1.941133 -13.419735 -13.992684 0.000000 -0.000000 0.000000 -11.879943 4.087672 30.442975 -0.817743 -4.281122 15.462161 -1.380344 -0.237976 -3.587647 7.937406 4.503865 18.976944 18.353645 -3.201512 -16.271086 -26.029826 12.558262 3.014588 -32.525847 -12.856920 4.801317 62.028616 -77.208330 -56.343320 2.219056 -13.895380 -3.390545 24.657394 -8.856865 10.522441 52.502845 -4.346849 -8.003701 -30.737745 12.546978 -17.086556 -3.777543 2.230896 -16.189344 
-0.138870 1.660514 1.014276 103.138147 25.903507 94.435121 18.807136 7.215873 -24.436263 -10.809478 -3.740741 35.108221 3.811039 14.956533 -22.835365 0.000000 -0.000000 0.000000 0.828406 -6.810785 -17.588660 0.267015 -15.324759 51.542839 2.071569 -13.935631 -12.456684 0.000000 -0.000000 0.000000 -12.541554 4.103016 26.729674 -1.584027 -3.695945 15.911809 -1.918845 0.114625 -3.249675 6.787673 1.689203 18.519983 18.244789 -2.139205 -14.989086 -26.122525 12.992929 3.441179 -38.354266 -10.867522 7.813284 60.658486 -79.336564 -53.668761 1.253464 -13.308719 -3.020367 22.778950 -8.668249 9.365281 48.918913 -2.419049 -9.486561 -31.477619 14.420510 -20.771727 -4.722993 2.441990 -15.108750 
-0.136502 1.673359 1.012148 100.075632 22.741910 92.906806 15.335083 5.289199 -22.382084 -10.177987 -1.322658 34.443509 4.265958 16.474209 -22.936258 0.000000 -0.000000 0.000000 4.367141 -6.321173 -14.584824 0.679796 -16.408809 49.064740 2.060013 -14.729428 -10.926905 0.000000 -0.000000 0.000000 -13.253888 4.084500 22.881075 -2.572044 -3.203487 15.423814 -2.695206 0.468617 -2.846302 5.318180 -0.987371 18.092449 18.178007 -1.277506 -13.476057 -25.554420 13.706849 3.885773 -42.835403 -8.672407 10.205944 61.115269 -81.838812 -52.875807 0.152961 -13.258073 -3.013166 20.644634 -8.056344 8.316179 45.501225 0.386528 -9.887415 -32.035130 17.248141 -23.288462 -5.536164 3.243663 -14.107560 
-0.135841 1.687609 1.009030 95.364455 19.333543 91.549513 11.709418 3.690573 -20.852535 -9.522592 2.204397 33.858780 4.929815 17.998910 -22.706835 0.000000 -0.000000 0.000000 6.992200 -5.505149 -12.722076 1.013470 -15.887292 48.824081 2.128843 -14.658504 -9.594844 0.000000 -0.000000 0.000000 -14.175479 4.195561 18.035758 -3.721082 -2.379920 14.974223 -3.794672 1.375765 -2.783125 4.124562 -3.528621 17.855715 17.805709 -1.090034 -12.098035 -24.252215 14.242231 2.944817 -46.784294 -5.798796 12.731456 63.710651 -84.123885 -54.341491 -1.627125 -13.132356 -2.928815 18.954174 -7.072503 6.689220 41.865071 4.125717 -9.241911 -32.468623 20.525286 -24.946984 -5.757885 4.192039 -12.406035 
-0.134518 1.703688 1.005630 89.078912 15.727299 89.665921 7.927666 3.111727 -18.847596 -8.561904 7.052614 32.933493 5.823853 19.195812 -22.123634 0.000000 -0.000000 0.000000 8.433864 -4.552996 -10.189763 1.088712 -15.017957 49.635578 2.534098 -14.308321 -8.706218 0.000000 -0.000000 0.000000 -14.954356 4.301359 13.475667 -5.038754 -1.064113 14.329821 -4.989989 2.792596 -3.122946 3.132921 -5.425482 17.804620 16.909213 -1.633843 -11.315021 -23.130605 14.381638 1.502706 -49.510262 -2.433220 14.716807 76.387060 -85.854782 -65.833132 -3.335263 -13.038336 -2.984750 17.891475 -4.941849 5.333011 38.040772 8.480687 -8.224156 -32.843083 24.642588 -26.026158 -6.005888 5.051062 -9.883870 
-0.133493 1.720455 1.001752 81.488492 12.105578 87.731147 4.325117 3.473772 -16.684588 -7.901516 12.164053 31.271292 6.557387 20.330450 -21.254565 0.000000 -0.000000 0.000000 9.039245 -4.200078 -7.367112 0.359725 -14.363326 50.823916 3.061066 -14.330756 -8.842205 0.000000 -0.000000 0.000000 -15.059852 4.543255 8.891325 -6.201414 0.734598 14.098944 -6.209683 4.577677 -3.801685 2.543215 -6.611790 16.868444 15.544973 -2.898280 -10.702633 -22.300656 14.472497 -0.640721 -51.433009 0.431610 16.552030 90.835194 -86.766472 -79.665215 -4.647115 -13.222719 -3.422834 16.958214 -1.504860 4.682668 34.245361 13.811139 -6.428712 -33.124048 28.080552 -26.063229 -6.873507 6.074680 -8.421500 
-0.133985 1.736575 0.997850 73.164524 8.817396 86.076449 1.448098 4.406080 -15.021694 -7.884058 17.034398 29.431076 6.856177 21.367469 -19.967159 0.000000 -0.000000 0.000000 9.155071 -4.670667 -4.213276 -0.619220 -14.171052 50.991965 3.210104 -14.259084 -8.871508 0.000000 -0.000000 0.000000 -14.345796 5.222642 4.733267 -6.954020 2.810123 14.268200 -7.139703 6.460845 -4.604900 2.825848 -7.825713 14.535931 13.487311 -4.427138 -9.983296 -21.212275 14.200352 -2.859798 -53.556781 2.828181 18.152862 99.961396 -86.837993 -87.740081 -5.645151 -12.965569 -4.092020 15.819281 2.544913 3.707597 30.959105 19.956445 -4.732983 -32.647264 31.368777 -25.364711 -7.748602 7.036242 -6.854052 
-0.136194 1.752828 0.994451 64.654202 5.907848 85.232876 -0.874902 5.208515 -14.670937 -7.836094 21.608853 28.020453 7.269882 22.045827 -18.630707 0.000000 -0.000000 0.000000 9.068472 -5.413093 -1.076133 -1.179374 -13.558050 49.045978 3.584522 -13.905525 -9.046327 0.000000 -0.000000 0.000000 -13.038945 6.207434 1.042087 -7.280055 4.366724 14.122210 -7.711849 8.238275 -5.132948 3.543166 -8.816689 12.003089 11.300503 -5.817490 -9.529354 -19.890922 13.706918 -4.497109 -55.646024 5.124531 18.666267 107.119459 -86.620698 -93.803476 -6.481079 -12.561539 -4.556927 14.508796 7.326154 3.504134 28.656158 27.283294 -3.763867 -31.708185 34.303001 -24.042225 -8.663655 7.397741 -5.156701 
-0.139497 1.768619 0.992157 55.858957 3.219567 84.803035 -2.771420 5.526244 -15.247424 -7.499385 25.202702 27.425775 7.487808 22.544174 -16.913047 0.000000 -0.000000 0.000000 8.027245 -6.751046 2.299263 -1.132527 -12.829394 44.944771 3.759133 -13.160598 -9.235356 0.000000 -0.000000 0.000000 -11.604439 7.964568 -2.374042 -7.094688 5.656668 14.727088 -8.028152 9.886652 -5.810127 4.426305 -9.900079 9.866090 9.652054 -7.163823 -9.525641 -18.117933 12.900362 -5.452487 -57.234270 6.947478 18.960510 110.560307 -86.400951 -96.101465 -5.683991 -12.422855 -6.735570 13.017752 12.414759 3.297723 28.093743 34.926763 -2.355384 -30.019656 36.317305 -22.245331 -10.699934 8.160363 -4.697639 
-0.144548 1.785036 0.990398 47.735464 0.930501 84.574567 -4.195178 4.801003 -16.605078 -6.330018 27.872977 28.187585 7.640757 22.567328 -15.712828 0.000000 -0.000000 0.000000 6.297646 -8.322110 5.406996 -1.007544 -12.973290 39.504442 3.689101 -12.343032 -9.476405 0.000000 -0.000000 0.000000 -9.943171 10.107085 -4.837996 -6.639225 6.635658 15.918913 -8.123238 10.970481 -6.709430 6.031322 -10.611620 7.756476 7.881866 -8.790676 -9.419617 -16.561431 11.805075 -6.871937 -57.864708 8.569743 19.152521 100.118492 -86.498572 -86.101888 -5.808309 -13.095967 -6.796035 11.312863 17.601835 2.814772 28.949423 42.603243 0.689996 -27.071221 36.224124 -19.942752 -11.715962 10.981453 -3.312264 
-0.151914 1.802806 0.987861 39.992520 -1.050837 84.839598 -4.973675 3.927524 -18.536518 -5.718140 29.090404 28.940591 7.652522 22.842211 -14.467034 0.000000 -0.000000 0.000000 4.119250 -10.156407 7.723022 -1.362949 -13.519148 33.130632 3.235264 -13.567249 -11.347835 0.000000 -0.000000 0.000000 -8.504622 12.501261 -5.881539 -6.181809 7.440378 15.459807 -7.550034 12.067001 -6.287817 6.903833 -11.963634 5.675758 6.982463 -9.740932 -9.309387 -15.095104 10.505004 -6.691851 -58.126831 9.008164 18.641076 105.365098 -87.027259 -90.849519 -4.582153 -12.498574 -7.721284 10.546028 22.157050 2.765790 30.170883 47.460480 2.414501 -24.490524 41.282775 -17.169590 -12.277798 11.150540 -1.825609 
-0.161075 1.820312 0.985113 31.742106 -2.265059 84.635658 -4.284578 4.170837 -20.183461 -5.358070 28.869196 30.736784 6.783212 21.985256 -13.754595 0.000000 -0.000000 0.000000 2.183736 -11.521990 10.318265 -1.900456 -12.694299 26.918256 3.085845 -14.077954 -18.025563 0.000000 -0.000000 0.000000 -6.451564 14.699808 -5.149176 -5.778513 8.455538 14.557312 -6.741489 13.013299 -5.978212 7.757114 -12.181742 3.915871 5.967104 -10.679290 -9.407804 -14.287934 10.103365 -6.088050 -57.312169 9.044555 17.726006 123.664426 -87.677473 -109.428437 -5.495555 -12.350228 -8.888271 11.385011 26.069240 3.902189 31.858007 52.899258 4.402171 -21.044534 46.176062 -12.758658 -11.127106 11.874882 -0.196354 
